<?xml version="1.0" encoding="UTF-8" standalone="no"?>
<svg
   xmlns:dc="http://purl.org/dc/elements/1.1/"
   xmlns:cc="http://creativecommons.org/ns#"
   xmlns:rdf="http://www.w3.org/1999/02/22-rdf-syntax-ns#"
   xmlns:svg="http://www.w3.org/2000/svg"
   xmlns="http://www.w3.org/2000/svg"
   xmlns:sodipodi="http://sodipodi.sourceforge.net/DTD/sodipodi-0.dtd"
   xmlns:inkscape="http://www.inkscape.org/namespaces/inkscape"
   viewBox="0 0 58.070251 76.000099"
   version="1.1"
   x="0px"
   y="0px"
   id="svg893"
   sodipodi:docname="camera-black.svg"
   width="58.070251"
   height="76.000099"
   inkscape:version="0.92.4 (5da689c313, 2019-01-14)">
  <metadata
     id="metadata899">
    <rdf:RDF>
      <cc:Work
         rdf:about="">
        <dc:format>image/svg+xml</dc:format>
        <dc:type
           rdf:resource="http://purl.org/dc/dcmitype/StillImage" />
        <dc:title>Essentials ISO 1 - Outline - 004 - Camera</dc:title>
      </cc:Work>
    </rdf:RDF>
  </metadata>
  <defs
     id="defs897" />
  <sodipodi:namedview
     pagecolor="#ffffff"
     bordercolor="#666666"
     borderopacity="1"
     objecttolerance="10"
     gridtolerance="10"
     guidetolerance="10"
     inkscape:pageopacity="0"
     inkscape:pageshadow="2"
     inkscape:window-width="1918"
     inkscape:window-height="1060"
     id="namedview895"
     showgrid="false"
     fit-margin-top="0"
     fit-margin-left="0"
     fit-margin-right="0"
     fit-margin-bottom="0"
     inkscape:zoom="8.8421053"
     inkscape:cx="29.0335"
     inkscape:cy="36.821263"
     inkscape:window-x="0"
     inkscape:window-y="18"
     inkscape:window-maximized="1"
     inkscape:current-layer="g887" />
  <title
     id="title877">Essentials ISO 1 - Outline - 004 - Camera</title>
  <desc
     id="desc879">Created with Sketch.</desc>
  <g
     id="g887"
     style="fill:none;fill-rule:evenodd;stroke:none;stroke-width:1"
     transform="translate(-0.9665,1.0113948e-4)">
    <g
       id="g885"
       style="fill:#000000;fill-rule:nonzero">
      <path
         d="m 1.42646,46.0918 3.37042,2.1604 c 1.3606,3.8858 3.88019,7.36456 6.65106,9.13061 1.084489,0.744171 2.351908,1.177455 3.665,1.25293 0.28907,0.21094 0.57715,0.41309 0.86328,0.59571 1.559606,1.084795 3.39667,1.701439 5.29493,1.77734 0.888973,0.0026 1.767815,-0.188733 2.57519,-0.56079 l 24.041,15.3938 c 0.307404,0.197539 0.698259,0.211028 1.01855,0.03515 0.0064,-0.0035 0.01105,-0.0091 0.0174,-0.01275 l 0.0012,0.002 9.6123,-5.5498 c 0.309481,-0.178643 0.500097,-0.50887 0.5,-0.86621 V 32.77393 c -2.05e-4,-0.340567 -0.173492,-0.657683 -0.46,-0.8418 L 46.9831,24.49854 43.68818,15.42529 C 42.863285,12.963495 41.281872,10.825157 39.16962,9.31543 L 31.79853,4.59863 C 30.537233,3.6272139 28.833524,3.4569252 27.40491,4.15948 L 27.40107,4.15283 22.98994,6.69989 V 5.61572 C 22.989916,5.2747428 22.816179,4.9572708 22.529,4.77344 L 15.31416,0.15771 C 15.006252,-0.03951108 14.615211,-0.0528048 14.29462,0.12305 14.26814,0.13757 14.24781,0.15924 14.22303,0.17584 L 4.74372,5.64935 C 4.72395,5.65845 4.70258,5.66187 4.6833,5.67235 4.5110019,5.7687569 4.3713001,5.9142687 4.28199,6.09035 L 1.50446,7.69562 1.48603,7.70262 C 1.1656265,7.8782935 0.96646668,8.2146567 0.9665,8.58006 V 45.25 c 8.108e-5,0.340589 0.1733803,0.657754 0.45996,0.8418 z m 9.94727,-32.67823 -5.21,-3.33545 V 8.37744 l 5.21,3.33545 z m -7.21,-4.614 L 3.89164,8.62532 4.16373,8.46809 Z m 11.22852,47.8313 -0.01758,10e-4 C 14.35114,56.619923 13.356015,56.293669 12.52409,55.6973 10.03971,54.1133 7.75651,50.88675 6.56509,47.27347 6.0656089,45.819991 5.7996168,44.296541 5.77701,42.7598 5.703501,41.491934 6.0304361,40.233042 6.71158,39.16116 6.9745536,38.775995 7.3451014,38.476772 7.77701,38.30081 8.0880484,38.172273 8.4219248,38.108154 8.75845,38.11233 9.7236834,38.166 10.654788,38.487964 11.447,39.042 c 3.72168,2.39063 6.75,8.19922 6.75,12.94824 0.05022,1.13526 -0.200789,2.263599 -0.72754,3.27051 -0.148534,0.2763 -0.343425,0.525033 -0.57617,0.73535 -0.101819,0.08949 -0.210421,0.170954 -0.32483,0.24366 l -0.06714,0.03888 c -0.335082,0.206841 -0.716016,0.327822 -1.10904,0.35222 z m 4.82129,-2.49707 c -0.01581,0.0096 -0.04236,0.02673 -0.06824,0.0437 l -0.09973,0.05786 c -0.0296,0.01239 -0.05817,0.02808 -0.08673,0.0434 0.163495,-0.751729 0.243347,-1.519235 0.2381,-2.28852 0,-5.35156 -3.44043,-11.915 -7.67383,-14.63427 -0.521187,-0.332191 -1.075674,-0.608985 -1.65442,-0.82587 l 0.02454,-0.01349 0.34179,-0.20556 -0.0028,-0.0048 c 1.001,-0.56677 2.36554,-0.36065 3.89245,0.61756 3.71973,2.3789 6.74512,8.18359 6.74512,12.94043 3e-5,2.07323 -0.60349,3.62987 -1.65622,4.26952 z m -2.54782,3.7812 0.0038,-0.0029 3.18659,-1.84473 0.03027,-0.01367 v -0.002 c 0.03906,-0.01758 0.07715,-0.03711 0.11328,-0.05762 l 0.24024,-0.13965 -0.0029,-0.005 c 0.02112,-0.01477 0.04559,-0.02234 0.0664,-0.038 1.65528,-1.03808 2.56641,-3.14648 2.56641,-5.94726 0,-5.36035 -3.43945,-11.92139 -7.667,-14.625 -2.34912,-1.50311 -4.6615,-1.65015 -6.32959,-0.44452 l -0.03467,0.01874 -2.86694,1.64825 c 0.28143,-2.52215 1.24554,-4.37768 2.75073,-5.20343 l 0.00732,-0.0043 4.9e-4,8.5e-4 0.16388,-0.09472 c 1.61823,-0.80805 3.7785,-0.44281 6.08319,1.03222 5.60742,3.58838 10.16992,12.32617 10.16992,19.47754 0,3.19141 -0.957,5.62793 -2.626,6.68555 -0.03176,0.02013 -0.06241,0.04197 -0.0918,0.06543 l -0.03516,0.02051 c -1.51168,0.90344 -3.5273,0.71203 -5.72847,-0.52629 z m -0.0084,-32.10042 0.42639,0.619 c 1.66211,-1.147 3.99121,-0.876 6.55371,0.75879 5.60742,3.58789 10.16894,12.3252 10.16894,19.47754 0,3.37409 -1.05346,5.86926 -2.93316,6.8728 l -4.3e-4,-7.3e-4 -4.3902,2.5354 c 0.458714,-1.423481 0.683173,-2.912019 0.66461,-4.40747 0,-7.75488 -4.97558,-17.24853 -11.09179,-21.16211 -1.046622,-0.687624 -2.198598,-1.199556 -3.41037,-1.51555 l 4.384,-2.53375 z m 29.76916,47.3573 -21.59637,-13.82764 7.014,-4.05329 0.0013,0.002 c 2.55468,-1.35547 3.96093,-4.418 3.96093,-8.623 0,-7.75537 -4.97558,-17.249 -11.09179,-21.16308 -3.19989,-2.04 -6.35364,-2.31269 -8.679,-0.76947 l -0.0065,-0.0113 -7.8877,4.55518 -0.32086,0.18884 -0.07562,0.04309 -0.01733,0.0116 -0.011,0.0065 3.7e-4,6.1e-4 c -2.46955,1.373 -3.83045,4.39868 -3.83045,8.5282 0,0.07373 0,0.14892 0.001,0.22461 -0.7846028,1.357192 -1.1695221,2.908552 -1.11035,4.4751 0.00541,0.879483 0.088327,1.756779 0.2478,2.6217 L 2.9665,44.70315 V 10.40771 l 10.61133,6.79444 c 0.457072,0.293926 1.065306,0.168049 1.36817,-0.28315 l 3.39942,-5.04 c 0.74218,-1.10157 2.0498,-0.502 2.76269,-0.04639 l 7.37012,4.72021 c 1.734184,1.276448 3.032453,3.056724 3.71777,5.09806 l 3.41015,9.41012 c 0.07509,0.206694 0.216134,0.382919 0.40136,0.50146 l 11.41895,7.30469 z m 2,0.09478 V 38.89679 l 7.61035,-4.39313 v 34.36939 z m 6.68561,-40.53882 -7.65924,4.42176 -9.972,-6.379 7.67157,-4.42883 z M 30.71943,6.28223 38.08955,10.999 c 1.737044,1.276772 3.035846,3.060366 3.71777,5.10547 l 3.13318,8.6272 -7.85706,4.536 -3.00757,-8.29987 c -0.829775,-2.457142 -2.411193,-4.591152 -4.5205,-6.10009 L 22.18525,10.14749 C 21.991495,10.027947 21.791571,9.9187053 21.58631,9.82022 l 6.7096,-3.87422 6.7e-4,0.00129 0.11523,-0.06348 c 0.783952,-0.3015929 1.670181,-0.1485819 2.30762,0.39842 z m -12.93067,3.42089 0.0029,0.00507 c -0.44239,0.2636452 -0.819858,0.623362 -1.10449,1.05255 l -0.92663,1.37378 -2.38684,1.38025 V 11.7431 L 20.98994,7.34619 V 7.85474 Z M 20.06428,5.57086 12.40046,9.99524 7.0973,6.60024 14.75849,2.17653 Z"
         id="path881"
         inkscape:connector-curvature="0" />
      <path
         d="m 12.25654,42.40918 c -0.837837,-0.659839 -1.974118,-0.796269 -2.94434,-0.35352 -0.9919532,0.674257 -1.5291406,1.842234 -1.39551,3.03418 0.095506,2.289613 0.9920762,4.472968 2.53321,6.16895 0.374366,0.41487 0.801126,0.779263 1.26953,1.084 0.406308,0.270188 0.860892,0.459516 1.33887,0.55762 0.177097,0.03607 0.357348,0.05438 0.53808,0.05469 0.510238,0.0062 1.006256,-0.168091 1.40039,-0.49219 0.752388,-0.730203 1.140722,-1.757408 1.05957,-2.80273 -0.108781,-2.866224 -1.504902,-5.530385 -3.7998,-7.251 z m 2.10646,9.28027 c -0.318088,0.246601 -0.732702,0.331403 -1.12207,0.2295 -0.352525,-0.07689 -0.687232,-0.220056 -0.98632,-0.42188 -0.395288,-0.258002 -0.755395,-0.566246 -1.07129,-0.917 -1.3751565,-1.508182 -2.1773179,-3.451197 -2.26661,-5.49024 -0.1091012,-0.823055 0.2233704,-1.642728 0.875,-2.15722 0.1831125,-0.09788 0.3881,-0.147617 0.59571,-0.14453 0.47799,0.02654 0.938889,0.18694 1.33008,0.46289 2.007312,1.536405 3.230137,3.883705 3.33886,6.40918 0.0737,0.74493 -0.179233,1.485217 -0.69336,2.0293 z"
         id="path883"
         inkscape:connector-curvature="0" />
    </g>
  </g>
</svg>
