<?xml version="1.0" encoding="UTF-8" standalone="no"?>
<svg
   xmlns:dc="http://purl.org/dc/elements/1.1/"
   xmlns:cc="http://creativecommons.org/ns#"
   xmlns:rdf="http://www.w3.org/1999/02/22-rdf-syntax-ns#"
   xmlns:svg="http://www.w3.org/2000/svg"
   xmlns="http://www.w3.org/2000/svg"
   xmlns:sodipodi="http://sodipodi.sourceforge.net/DTD/sodipodi-0.dtd"
   xmlns:inkscape="http://www.inkscape.org/namespaces/inkscape"
   data-name="Layer 2"
   viewBox="0 0 76.587189 71.336906"
   x="0px"
   y="0px"
   version="1.1"
   id="svg974"
   sodipodi:docname="money-black.svg"
   width="76.587189"
   height="71.336906"
   inkscape:version="0.92.4 (5da689c313, 2019-01-14)">
  <metadata
     id="metadata980">
    <rdf:RDF>
      <cc:Work
         rdf:about="">
        <dc:format>image/svg+xml</dc:format>
        <dc:type
           rdf:resource="http://purl.org/dc/dcmitype/StillImage" />
        <dc:title>Money</dc:title>
      </cc:Work>
    </rdf:RDF>
  </metadata>
  <defs
     id="defs978" />
  <sodipodi:namedview
     pagecolor="#ffffff"
     bordercolor="#666666"
     borderopacity="1"
     objecttolerance="10"
     gridtolerance="10"
     guidetolerance="10"
     inkscape:pageopacity="0"
     inkscape:pageshadow="2"
     inkscape:window-width="1918"
     inkscape:window-height="1060"
     id="namedview976"
     showgrid="false"
     fit-margin-top="0"
     fit-margin-left="0"
     fit-margin-right="0"
     fit-margin-bottom="0"
     inkscape:zoom="1.888"
     inkscape:cx="-50.117847"
     inkscape:cy="23.170019"
     inkscape:window-x="0"
     inkscape:window-y="18"
     inkscape:window-maximized="0"
     inkscape:current-layer="svg974" />
  <title
     id="title956">Money</title>
  <path
     d="m 19.730712,50.666891 a 1,1 0 0 1 -0.73,-0.3 l -18.71999975,-19.45 a 1,1 0 0 1 0.26,-1.57 L 56.380712,0.11689077 a 1,1 0 0 1 1.19,0.19 l 18.72,19.44000023 a 1,1 0 0 1 0.27,0.85 1,1 0 0 1 -0.53,0.73 l -55.84,29.23 a 1.11,1.11 0 0 1 -0.46,0.11 z m -17.0799998,-20.17 17.2699998,17.94 54,-28.26 -17.27,-17.9400002 z"
     id="path958"
     inkscape:connector-curvature="0"
     style="fill:#000000;fill-opacity:1" />
  <path
     d="m 19.730712,57.126891 a 1,1 0 0 1 -0.73,-0.31 l -18.71999975,-19.44 a 1.0007122,1.0007122 0 0 1 1.43999995,-1.39 l 18.1999998,18.9 55.15,-28.88 a 1.0164768,1.0164768 0 1 1 1,1.77 l -55.88,29.23 a 1,1 0 0 1 -0.46,0.12 z"
     id="path960"
     inkscape:connector-curvature="0"
     style="fill:#000000;fill-opacity:1" />
  <path
     d="m 19.730712,64.226891 a 1,1 0 0 1 -0.73,-0.3 l -18.71999975,-19.45 a 1,1 0 0 1 1.43999995,-1.38 l 18.1999998,18.9 55.15,-28.88 a 1,1 0 0 1 1.35,0.42 1,1 0 0 1 -0.35,1.35 l -55.88,29.23 a 1.11,1.11 0 0 1 -0.46,0.11 z"
     id="path962"
     inkscape:connector-curvature="0"
     style="fill:#000000;fill-opacity:1" />
  <path
     d="m 19.730712,71.336891 a 1,1 0 0 1 -0.73,-0.31 l -18.71999975,-19.44 a 1.0007122,1.0007122 0 0 1 1.43999995,-1.39 l 18.1999998,18.9 55.15,-28.88 a 1,1 0 0 1 1.35,0.43 1,1 0 0 1 -0.35,1.34 l -55.88,29.23 a 1,1 0 0 1 -0.46,0.12 z"
     id="path964"
     inkscape:connector-curvature="0"
     style="fill:#000000;fill-opacity:1" />
  <path
     d="m 27.650712,42.456891 a 1,1 0 0 1 -0.72,-0.31 5.78,5.78 0 0 0 -6.38,-0.75 1,1 0 0 1 -1.19,-0.19 l -7.23,-7.54 a 1,1 0 0 1 -0.27,-0.85 1,1 0 0 1 0.52,-0.73 3,3 0 0 0 1.69,-2.04 2.22,2.22 0 0 0 -0.7,-1.93 1,1 0 0 1 -0.27,-0.86 1,1 0 0 1 0.53,-0.72 l 34.83,-18.2100002 a 1,1 0 0 1 1.18,0.19 5.76,5.76 0 0 0 6.43,0.75 1,1 0 0 1 1.19,0.2 l 7.23,7.5100002 a 1,1 0 0 1 0.27,0.85 1,1 0 0 1 -0.52,0.73 3,3 0 0 0 -1.78,2.11 2.24,2.24 0 0 0 0.7,1.94 1,1 0 0 1 0.27,0.85 1,1 0 0 1 -0.53,0.73 l -34.83,18.15 a 0.93,0.93 0 0 1 -0.42,0.12 z m -4.42,-3.69 a 7.44,7.44 0 0 1 4.57,1.48 l 33.15,-17.35 a 4,4 0 0 1 -0.46,-2.6 4.63,4.63 0 0 1 1.68,-2.79 l -5.91,-6.15 a 7.82,7.82 0 0 1 -7.49,-0.94 l -33.15,17.35 a 4,4 0 0 1 0.45,2.6 4.65,4.65 0 0 1 -1.68,2.8 l 5.91,6.14 a 8.12,8.12 0 0 1 2.93,-0.54 z"
     id="path966"
     inkscape:connector-curvature="0"
     style="fill:#000000;fill-opacity:1" />
  <path
     d="m 38.280712,31.156891 a 8.4,8.4 0 0 1 -6,-2.35 4.85,4.85 0 0 1 -1.43,-4.2 5.79,5.79 0 0 1 3.22,-4.08 c 3.36,-1.76 7.88,-1.17 10.28,1.33 v 0 a 4.87,4.87 0 0 1 1.43,4.21 5.8,5.8 0 0 1 -3.22,4.07 9.15,9.15 0 0 1 -4.28,1.02 z m 0,-9.62 a 7.15,7.15 0 0 0 -3.3,0.76 3.88,3.88 0 0 0 -2.18,2.63 2.89,2.89 0 0 0 0.9,2.5 c 1.76,1.83 5.39,2.26 7.91,0.94 a 3.85,3.85 0 0 0 2.18,-2.62 2.88,2.88 0 0 0 -0.9,-2.5 v 0 a 6.45,6.45 0 0 0 -4.62,-1.71 z"
     id="path968"
     inkscape:connector-curvature="0"
     style="fill:#000000;fill-opacity:1" />
</svg>
