<?xml version="1.0" encoding="UTF-8" standalone="no"?>
<svg
   xmlns:dc="http://purl.org/dc/elements/1.1/"
   xmlns:cc="http://creativecommons.org/ns#"
   xmlns:rdf="http://www.w3.org/1999/02/22-rdf-syntax-ns#"
   xmlns:svg="http://www.w3.org/2000/svg"
   xmlns="http://www.w3.org/2000/svg"
   xmlns:sodipodi="http://sodipodi.sourceforge.net/DTD/sodipodi-0.dtd"
   xmlns:inkscape="http://www.inkscape.org/namespaces/inkscape"
   version="1.1"
   x="0px"
   y="0px"
   viewBox="0 0 92.230004 100.312"
   enable-background="new 0 0 100 100"
   xml:space="preserve"
   id="svg872"
   sodipodi:docname="voting.svg"
   width="92.230003"
   height="100.312"
   inkscape:version="0.92.4 (5da689c313, 2019-01-14)"><metadata
     id="metadata878"><rdf:RDF><cc:Work
         rdf:about=""><dc:format>image/svg+xml</dc:format><dc:type
           rdf:resource="http://purl.org/dc/dcmitype/StillImage" /><dc:title /></cc:Work></rdf:RDF></metadata><defs
     id="defs876" /><sodipodi:namedview
     pagecolor="#ffffff"
     bordercolor="#666666"
     borderopacity="1"
     objecttolerance="10"
     gridtolerance="10"
     guidetolerance="10"
     inkscape:pageopacity="0"
     inkscape:pageshadow="2"
     inkscape:window-width="1918"
     inkscape:window-height="1060"
     id="namedview874"
     showgrid="false"
     fit-margin-top="0"
     fit-margin-left="0"
     fit-margin-right="0"
     fit-margin-bottom="0"
     inkscape:zoom="2.3758788"
     inkscape:cx="119.30625"
     inkscape:cy="4.9146202"
     inkscape:window-x="0"
     inkscape:window-y="18"
     inkscape:window-maximized="1"
     inkscape:current-layer="svg872" /><path
     d="M 92.23,23.663 90.73,21.065 84.228,24.819 73.483,6.208 79.736,2.598 78.236,0 69.385,5.11 71.18,8.218 c -1.435,0.101 -2.728,0.159 -3.916,0.159 -3.562,0 -6.397,-0.519 -11.042,-1.606 -0.527,-0.124 -1.066,-0.187 -1.601,-0.187 -4.625,0 -7.718,4.46 -8.833,6.378 -2.138,3.676 -2.821,4.869 -3.502,6.059 -0.597,1.042 -1.192,2.082 -2.769,4.796 L 37.332,22.521 23.243,43.8 H 13.639 L 0.012,54.455 0.015,54.459 H 0 v 12.187 h 5.528 v 33.666 h 3 V 66.646 h 57.188 v 33.666 h 3 V 66.646 h 5.533 V 54.459 H 74.235 L 74.25,54.439 60.561,43.8 h -2.279 l 4.012,-6.479 -3.142,-1.862 0.165,-0.066 c 1.848,-0.749 3.55,-0.996 5.501,-0.816 0.368,0.033 0.743,0.051 1.124,0.051 2.75,0 5.383,-0.924 7.223,-2.535 0.503,-0.439 0.958,-0.782 1.521,-1.144 l 7.014,-4.511 1.432,2.48 z M 71.249,63.646 H 3 V 57.458 H 71.249 Z M 59.532,46.8 69.385,54.459 H 4.878 L 14.672,46.8 h 6.585 l -1.332,2.012 h -3.059 v 3 h 40.516 v -3 H 55.179 L 56.425,46.8 Z m -1.398,-8.458 -6.4,10.334 -28.109,-0.019 14.635,-22.099 1.776,1.054 2.687,1.831 c -1.928,1.637 -2.688,4.389 -1.688,6.857 0.926,2.284 3.122,3.76 5.595,3.76 0.773,0 1.53,-0.147 2.25,-0.439 l 6.778,-2.747 z m 14.928,-9.918 c -0.693,0.446 -1.253,0.867 -1.873,1.409 -1.301,1.14 -3.214,1.793 -5.247,1.793 -0.289,0 -0.574,-0.014 -0.853,-0.039 -2.465,-0.224 -4.601,0.093 -6.899,1.024 L 47.753,36.84 c -1.506,0.608 -3.336,-0.183 -3.938,-1.667 -0.626,-1.545 0.122,-3.311 1.666,-3.938 l 3.983,-1.616 10.104,-4.627 c 0.396,-0.181 0.693,-0.525 0.815,-0.944 0.121,-0.418 0.056,-0.868 -0.182,-1.234 l -0.284,-0.438 c -0.941,-1.459 -2.413,-2.346 -4.142,-2.495 -0.173,-0.016 -0.345,-0.022 -0.514,-0.022 -1.548,0 -2.931,0.609 -3.999,1.762 -0.938,1.011 -1.772,2.489 -2.442,3.678 -0.314,0.557 -0.639,1.13 -0.863,1.452 -0.451,0.27 -1.658,0.814 -2.327,1.045 l -3.549,-2.419 c 1.604,-2.763 2.205,-3.812 2.809,-4.863 0.679,-1.187 1.36,-2.376 3.492,-6.042 1.778,-3.06 4.111,-4.886 6.239,-4.886 0.305,0 0.612,0.036 0.916,0.106 4.771,1.118 7.894,1.687 11.727,1.687 1.654,0 3.491,-0.109 5.578,-0.279 l 7.354,12.736 z M 52.525,24.92 c 0.31,-0.482 0.628,-0.926 0.938,-1.261 0.493,-0.531 1.099,-0.801 1.8,-0.801 0.083,0 0.167,0.003 0.253,0.011 0.342,0.03 0.652,0.115 0.93,0.255 z"
     id="path866"
     inkscape:connector-curvature="0"
     style="fill-opacity:1;fill:#ffffff" /></svg>